<?xml version="1.0" encoding="UTF-8"?>
<svg width="1242px" height="522px" viewBox="0 0 1242 522" version="1.1" xmlns="http://www.w3.org/2000/svg" xmlns:xlink="http://www.w3.org/1999/xlink">
    <!-- Generator: Sketch 59.1 (86144) - https://sketch.com -->
    <title>noodles</title>
    <desc>Created with Sketch.</desc>
    <defs>
        <linearGradient x1="9.3376494%" y1="15.0989791%" x2="86.7000747%" y2="77.4277888%" id="linearGradient-1">
            <stop stop-color="#FFA436" offset="0%"></stop>
            <stop stop-color="#FFA000" offset="100%"></stop>
        </linearGradient>
        <linearGradient x1="94.8693762%" y1="42.9820984%" x2="17.4848048%" y2="59.6743026%" id="linearGradient-2">
            <stop stop-color="#9059FF" offset="0%"></stop>
            <stop stop-color="#621ED3" offset="100%"></stop>
        </linearGradient>
        <linearGradient x1="104.799342%" y1="49.2507815%" x2="62.1992857%" y2="43.1006363%" id="linearGradient-3">
            <stop stop-color="#F80089" offset="0%"></stop>
            <stop stop-color="#FF49AC" offset="100%"></stop>
        </linearGradient>
    </defs>
    <g id="/firefox/new/redesign" stroke="none" stroke-width="1" fill="none" fill-rule="evenodd">
        <g id="/new-1312-v1" transform="translate(-28.000000, -5560.000000)">
            <g id="section-customize" transform="translate(0.000000, 5450.000000)">
                <g id="browser-chrome" transform="translate(0.000000, 94.000000)">
                    <g id="noodles" transform="translate(-23.000000, -36.000000)">
                        <path d="M1252.05727,285.376864 C1256.90635,288.109773 1258.65902,294.15094 1256.03001,299.012641 L1255.88395,299.300315 C1253.37178,303.960644 1255.09525,309.742904 1259.79826,312.303208 C1264.50128,314.863512 1270.40196,313.252534 1273.06018,308.678508 L1273.23545,308.390833 C1276.03973,303.586667 1282.26174,301.860619 1287.22765,304.564761 C1292.22278,307.29767 1294.03388,313.511441 1291.25881,318.430677 C1283.07965,332.958245 1264.50128,338.193923 1249.77879,330.139034 C1234.99789,322.084145 1229.65222,303.788039 1237.83138,289.260471 C1240.57724,284.370003 1246.77003,282.58642 1251.76516,285.204259 L1251.91122,285.290562 L1252.05727,285.376864 Z" id="Fill-1-Copy-2" stroke="#FFBA2D" transform="translate(1263.280001, 308.960001) rotate(3.000000) translate(-1263.280001, -308.960001) "></path>
                        <circle id="Oval-2" fill="url(#linearGradient-1)" cx="1151.48" cy="463.920018" r="120.480005"></circle>
                        <rect id="Rectangle" fill="url(#linearGradient-2)" transform="translate(339.271857, 314.240005) rotate(-40.000000) translate(-339.271857, -314.240005) " x="2.31184349" y="188" width="673.920027" height="252.48001" rx="126.120973"></rect>
                        <rect id="Rectangle-Copy-28" stroke="#FF008B" transform="translate(413.983829, 274.584994) rotate(-19.000000) translate(-413.983829, -274.584994) " x="105.483829" y="173.30499" width="617" height="202.560008" rx="101.280004"></rect>
                        <circle id="Oval" fill="#FF008B" cx="864.557532" cy="131.760005" r="10.0800004"></circle>
                        <rect id="Rectangle-Copy-27" fill="url(#linearGradient-3)" transform="translate(953.200012, 316.080012) rotate(-33.000000) translate(-953.200012, -316.080012) " x="646" y="189.840007" width="614.400024" height="252.48001" rx="126.120973"></rect>
                    </g>
                </g>
            </g>
        </g>
    </g>
</svg>