<svg width="54" height="47" viewBox="0 0 54 47" xmlns="http://www.w3.org/2000/svg"><path d="M18.276 1.94c4.23 2.684 5.52 8.196 2.928 12.442l-.144.252c-2.478 4.07-1.201 9.348 2.905 11.87 4.107 2.523 9.486 1.353 12.09-2.632l.171-.25c2.747-4.186 8.42-5.445 12.756-2.78 4.361 2.691 5.696 8.361 2.97 12.652-8.035 12.671-24.98 16.502-37.832 8.57C1.215 34.126-2.728 17.431 5.307 4.76 8.006.494 13.656-.817 18.022 1.77l.127.085.127.085z" stroke="#FFBA2D" stroke-width=".9" fill="none" fill-rule="evenodd"/></svg>